<?xml version="1.0" standalone="no"?><!DOCTYPE svg PUBLIC "-//W3C//DTD SVG 1.1//EN" "http://www.w3.org/Graphics/SVG/1.1/DTD/svg11.dtd"><svg t="1776699857312" class="icon" viewBox="0 0 1024 1024" version="1.1" xmlns="http://www.w3.org/2000/svg" p-id="2716" xmlns:xlink="http://www.w3.org/1999/xlink" width="200" height="200"><path d="M430.083793 89.954489c0-0.180632 0 0 0 0z" p-id="2717"></path><path d="M781.773333 1005.93685H239.156293C107.295294 1005.93685 0.000181 902.434997 0.000181 775.089787V259.386841C-0.180451 132.04163 107.114663 28.539778 239.156293 28.539778h456.636444v96.276592H239.156293c-78.755336 0-142.698889 60.330923-142.698889 134.570471v515.702946c0 74.239548 64.124184 134.570471 142.698889 134.570471h542.61704c78.755336 0 142.698889-60.330923 142.698889-134.570471l0.541894-399.195626 96.276592 0.180632-0.541894 399.014994c0.180632 127.345211-107.114482 230.847063-238.975481 230.847063z" fill="#707070" p-id="2718"></path><path d="M560.861003 539.365673c-13.1861 0-26.3722-5.057682-36.306933-15.173046a51.570295 51.570295 0 0 1 0-72.794497l411.839831-411.83983c20.050097-20.050097 52.744399-20.050097 72.794496 0s20.050097 52.744399 0 72.794496l-411.83983 411.839831c-10.295996 10.115364-23.482096 15.173046-36.487564 15.173046z" fill="#707070" p-id="2719"></path></svg>